<svg width="2303" height="792" viewBox="0 0 2303 792" fill="none" xmlns="http://www.w3.org/2000/svg">
<g clip-path="url(#clip0_1273_668)">
<path d="M122.326 169.503C387.208 162.307 655.068 161.664 920.831 164.38C925.453 164.428 930.076 164.571 934.674 164.761C1118.83 172.791 1337.75 147.582 1519.72 157.995C1577.4 161.283 1622.1 176.77 1630.41 195.784C1706.61 370.195 1596.13 551.135 1665.82 726.881C1673.33 745.776 1643.35 763.932 1590.74 771.366C1364.91 803.294 1008.61 775.297 760.835 782.493C751.709 782.755 742.512 782.803 733.362 782.421C550.778 775.107 334.98 799.577 155.088 789.45C97.2845 786.21 52.1567 770.651 44.3177 751.566C-3.21659 635.649 9.67366 516.801 31.5228 398.906C31.9516 396.571 32.8094 394.236 34.4296 391.973C71.7661 339.792 -32.2375 248.56 10.5076 199.453C25.0181 182.774 69.4311 170.909 122.326 169.455V169.503Z" fill="#1DA19E"/>
<path d="M319.421 338.695C324.949 352.563 326.545 367.097 324.258 382.179C318.73 410.986 304.339 432.12 280.774 445.582C257.209 459.044 231.643 465.239 204.052 464.167C196.928 463.762 190.995 461.737 186.42 458.258C179.82 458.663 173.768 457.043 168.24 453.54C162.713 450.038 158.948 444.129 156.803 436.051C141.983 373.197 131.905 309.508 126.52 245.176C126.258 240.339 127.068 235.764 129.355 231.713C133.001 221.754 139.72 215.702 149.679 213.415C169.193 209.65 189.804 208.84 211.462 210.722C233.144 212.604 249.823 222.85 261.546 241.268C265.977 249.75 268.146 259.305 267.884 269.812C267.741 280.177 266.406 290.137 263.857 299.548C273.149 300.501 282.037 303.051 290.233 306.958C304.243 314.225 313.917 324.852 319.445 338.719L319.421 338.695ZM191.4 271.909C192.615 283.203 193.949 294.378 195.57 305.552C201.359 295.188 204.719 284.156 205.529 272.695C204.719 272.552 204.052 272.433 203.504 272.29C202.956 272.147 202.289 272.147 201.622 272.147C200.954 272.147 200.001 272.004 198.786 272.004H197.714C195.57 272.004 193.544 271.861 191.376 271.861L191.4 271.909ZM263.428 366.406C263.428 363.713 262.475 362.093 260.593 361.831C246.201 361.164 232.191 363.451 218.586 368.693C214.559 370.028 210.366 370.433 206.196 369.765C208.222 380.392 210.509 391.162 212.915 401.932C223.28 401.789 233.383 399.906 243.199 396.142C253.016 392.377 259.354 385.229 262.451 374.864C263.118 371.91 263.523 369.075 263.404 366.382L263.428 366.406Z" fill="white"/>
<path d="M544.893 495.238C540.176 502.648 533.861 507.628 526.046 510.034C517.016 512.179 509.225 511.107 502.625 506.794C495.906 502.481 490.926 496.286 487.685 488.209C483.373 477.439 479.203 466.67 475.176 455.757C449.062 453.208 423.091 449.967 397.096 446.346C395.476 449.586 393.856 452.803 392.259 455.9C388.09 464.382 383.92 472.722 379.607 481.204C372.864 492.641 364.263 497.907 353.636 496.81C342.867 495.738 334.241 490.758 327.665 481.728C321.065 472.698 320.541 462.071 325.926 449.681C358.378 385.873 389.734 321.66 420.16 256.923C427.428 244.676 437.53 239.696 450.587 242.127C463.644 244.557 472.532 251.943 477.106 264.333C497.168 334.598 520.733 403.791 547.776 471.626C550.612 479.846 549.659 487.78 544.941 495.19L544.893 495.238ZM451.755 391.044C447.99 380.131 444.225 369.099 440.58 358.068C437.482 364.525 434.242 371.125 431.025 377.582C429.405 381.084 427.666 384.444 426.046 387.946C434.528 389.018 443.153 390.091 451.755 391.044Z" fill="white"/>
<path d="M712.633 450.968C717.208 461.07 717.208 471.173 712.776 480.99C708.344 490.949 699.314 496.072 685.995 496.477L605.89 494.452C597.55 494.047 590.14 490.949 583.802 485.302C577.464 479.512 574.391 472.245 574.796 463.358C579.632 398.335 586.113 333.454 593.905 268.717C594.977 259.973 598.074 252.706 603.34 246.63C608.582 240.578 615.849 237.48 625.022 237.48C632.838 237.48 640.105 240.578 646.824 246.63C653.686 252.563 656.783 259.949 656.235 268.717C649.516 323.376 643.988 378.153 639.414 433.074C647.229 433.217 654.901 433.479 662.692 433.622C670.508 433.884 678.18 434.027 685.971 434.289C699.29 435.361 708.178 440.889 712.633 450.992V450.968Z" fill="white"/>
<path d="M835.65 267.337C839.415 274.461 840.487 282.276 838.891 290.901C830.67 332.36 822.474 373.818 814.254 415.277C810.227 436.006 806.034 456.735 802.007 477.465C799.862 485.947 795.002 492.261 787.33 496.169C779.8 500.219 771.842 501.291 763.646 499.266C755.021 496.574 748.849 491.737 745.061 484.589C741.416 477.465 740.343 469.507 741.964 461.024C752.185 409.058 762.431 357.092 772.795 305.15C774.821 294.928 776.822 284.564 778.847 274.318C780.873 265.836 785.709 259.641 793.382 255.614C801.054 251.564 808.988 250.634 817.065 252.66C825.691 255.209 831.862 260.189 835.65 267.337Z" fill="white"/>
<path d="M1040.27 350.8C1025.19 381.346 1000.29 399.121 965.697 403.839C964.338 404.101 962.861 404.387 961.527 404.506C965.029 419.85 968.532 435.338 971.892 450.825C974.036 464.025 970.676 474.247 962.075 481.252C953.331 488.257 943.776 490.949 933.125 489.186C922.499 487.566 915.494 480.299 911.848 467.385C897.576 401.837 881.969 336.671 865.124 271.791C862.575 258.877 865.386 248.894 873.606 242.032C881.827 235.026 891.095 232.215 901.746 233.406C916.018 221.159 933.245 214.559 953.712 213.487C969.604 212.534 985.878 214.559 1002.44 219.42C1019 224.281 1030.98 234.359 1038.51 249.704C1051.83 283.228 1052.52 317.014 1040.25 350.8H1040.27ZM986.426 311.081C987.093 303.671 986.831 296.69 985.616 290.209C985.354 289.399 985.211 288.327 985.068 286.85C984.806 284.014 984.401 281.465 983.71 279.034C983.447 278.891 983.162 278.891 982.756 278.772C977.11 277.152 971.32 276.08 965.387 275.675H964.982C962.432 275.532 959.335 275.532 955.57 275.818C951.806 275.961 948.303 276.628 944.944 277.7C941.584 278.915 939.297 280.941 937.938 283.752C936.866 286.302 935.651 288.589 934.293 290.876C938.725 308.651 943.18 326.426 947.35 344.177C947.612 344.177 947.755 344.177 948.017 344.034C948.279 344.034 948.684 343.891 949.089 343.772C950.71 343.51 952.449 343.104 954.474 342.819C959.454 342.151 964.577 340.936 969.819 339.316C974.941 337.696 978.706 335.003 981.136 331.096C984.091 325.163 985.854 318.587 986.378 311.034L986.426 311.081Z" fill="white"/>
<path d="M1164.24 261.284C1163.29 264.929 1162.36 268.551 1161.55 272.197C1160.6 275.842 1159.67 279.464 1158.86 283.109C1165.2 284.324 1171.51 285.54 1177.97 286.755C1184.31 287.97 1190.62 289.304 1197.08 290.519C1205.42 292.545 1211.76 297.381 1215.78 305.054C1219.69 312.726 1220.76 320.66 1218.74 328.737C1216.19 337.482 1211.21 343.677 1204.06 347.322C1196.93 350.968 1188.98 352.04 1180.49 350.563C1174.3 349.348 1168.25 348.132 1162.2 347.06C1156.14 345.845 1149.95 344.63 1143.9 343.558C1140.25 358.497 1136.49 373.579 1132.72 388.662C1147.8 390.687 1162.6 393.236 1177.42 396.334C1190.33 399.979 1197.6 406.96 1199.37 417.611C1200.99 428.119 1198.29 437.816 1191.29 446.418C1184.28 455.162 1174.2 458.521 1160.86 456.377C1138.77 451.659 1116.57 448.562 1093.96 447.085C1083.45 446.132 1075.37 441.962 1069.46 434.576C1063.53 427.166 1061.79 418.278 1063.93 407.651C1071.34 377.892 1078.61 348.156 1086.02 318.397C1093.29 288.518 1100.7 258.758 1108.11 229.023C1107.44 220.397 1109.59 212.868 1114.57 206.268C1119.55 199.668 1127.36 196.451 1137.99 196.571C1167.34 197.786 1196.01 202.48 1224.14 210.962C1236.65 215.537 1243.8 223.352 1245.42 234.241C1247.04 245.153 1244.35 254.827 1237.49 263.19C1230.63 271.529 1220.67 274.103 1207.61 271.005C1193.22 266.573 1178.8 263.333 1164.27 261.308L1164.24 261.284Z" fill="white"/>
<path d="M1467.68 242.58C1472.11 252.397 1472.11 262.356 1467.68 272.459C1463.25 282.704 1454.36 288.47 1441.02 289.685C1428.36 290.233 1415.85 290.758 1403.18 291.306C1407.61 346.893 1411.26 402.505 1414.09 458.236C1413.95 471.555 1408.97 480.442 1399.3 484.898C1389.48 489.329 1379.5 489.329 1369.27 484.898C1359.05 480.466 1353.26 471.579 1351.79 458.236C1348.95 403.434 1345.45 348.656 1341.16 293.879C1335.11 294.141 1329.03 294.427 1323.12 294.689C1317.07 294.951 1311.02 295.237 1304.94 295.356C1291.62 295.213 1282.74 290.233 1278.28 280.417C1273.82 270.6 1273.85 260.617 1278.28 250.395C1282.71 240.15 1291.6 234.503 1304.94 233.168C1346.95 231.429 1388.93 229.666 1430.94 227.927C1434.3 227.784 1437.66 227.664 1441.04 227.521C1454.36 227.784 1463.25 232.763 1467.7 242.604L1467.68 242.58Z" fill="white"/>
<path d="M228.927 572.318C220.326 572.08 211.724 571.841 203.027 571.603C202.67 582.206 202.313 592.809 202.074 603.388C206.196 603.269 210.318 603.15 214.44 602.911C222.923 602.673 231.405 602.316 239.768 602.078C247.417 602.078 253.897 604.794 259.092 610.202C264.381 615.73 266.978 621.973 266.978 629.288C266.978 636.602 264.381 643.179 259.092 648.254C253.921 653.305 247.44 656.021 239.768 656.498L200.907 657.904C200.669 675.345 200.43 692.762 200.311 710.298C199.596 721.95 194.903 729.741 186.063 733.625C177.342 737.509 168.622 737.628 159.925 733.625C151.204 729.741 146.51 721.974 145.915 710.298C146.153 654.83 147.321 599.361 149.56 544.012C149.56 543.654 149.56 543.297 149.679 542.94V542.463C149.799 535.387 152.038 529.382 156.399 524.212C160.878 519.041 167.359 516.444 176.056 516.444C202.313 517.159 228.57 517.731 254.851 518.446C266.502 519.518 274.269 524.331 278.296 533.171C282.18 542.13 282.18 550.826 278.296 559.428C274.412 568.148 266.526 572.628 254.851 572.961C246.249 572.723 237.529 572.485 228.951 572.247L228.927 572.318Z" fill="white"/>
<path d="M458.926 681.016C458.569 688.664 455.877 695.145 450.921 700.434C445.155 705.843 438.793 708.44 431.716 708.083C424.759 707.725 418.302 705.247 412.393 700.434C395.309 686.424 377.892 672.867 360.093 659.81C360.093 669.46 359.974 679.253 359.855 688.902C359.021 700.673 354.327 708.44 345.487 712.348C336.648 716.232 327.951 716.232 319.23 712.348C310.629 708.464 305.911 700.697 305.458 688.902C306.173 632.028 305.935 575.13 304.863 518.375C305.22 506.604 309.819 498.813 318.396 494.929C326.998 491.045 335.838 491.045 344.534 494.929C356.305 491.164 368.432 489.044 381.156 488.686C393.76 488.329 405.412 491.045 415.895 496.692C437.554 509.988 449.705 529.311 452.04 554.639C452.04 587.972 438.721 613.395 411.892 630.956C425.092 641.082 438.03 651.328 450.873 661.93C456.52 666.982 459.236 673.344 458.879 681.016H458.926ZM385.564 544.155C377.677 542.988 369.076 543.917 359.783 547.11C360.022 563.598 360.141 579.967 360.26 596.336C360.498 596.455 360.736 596.455 361.094 596.574H361.451C370.41 593.738 378.654 589.616 385.945 584.208C393.26 578.799 397.144 571.603 397.835 562.764C397.596 551.565 393.474 545.346 385.588 544.155H385.564Z" fill="white"/>
<path d="M564.431 527.668C567.719 533.911 568.672 540.749 567.266 548.278C560.071 584.542 552.899 620.83 545.703 657.095C542.177 675.227 538.531 693.359 534.981 711.515C533.099 718.925 528.858 724.477 522.139 727.884C515.539 731.41 508.605 732.363 501.409 730.6C493.88 728.241 488.448 724 485.159 717.757C481.991 711.515 481.037 704.557 482.443 697.147C491.402 651.686 500.337 606.225 509.415 560.787C511.178 551.828 512.941 542.774 514.705 533.815C516.468 526.405 520.709 520.973 527.428 517.446C534.147 513.92 541.081 513.086 548.157 514.849C555.687 517.089 561.119 521.449 564.407 527.692L564.431 527.668Z" fill="white"/>
<path d="M679.49 569.269C678.656 572.461 677.846 575.63 677.131 578.799C676.297 581.968 675.487 585.161 674.773 588.33C680.3 589.402 685.852 590.451 691.499 591.499C697.027 592.571 702.578 593.739 708.225 594.787C715.516 596.55 721.068 600.791 724.594 607.51C728.001 614.23 728.954 621.163 727.191 628.24C724.952 635.888 720.591 641.321 714.349 644.49C708.106 647.682 701.149 648.612 693.739 647.325C688.33 646.277 683.017 645.204 677.727 644.275C672.438 643.203 667.005 642.155 661.715 641.225C658.547 654.306 655.235 667.482 651.947 680.682C665.147 682.445 678.084 684.685 691.046 687.401C702.34 690.57 708.702 696.694 710.25 706.01C711.656 715.183 709.297 723.666 703.174 731.219C697.05 738.867 688.211 741.822 676.56 739.939C657.236 735.817 637.817 733.101 618.017 731.814C608.82 730.981 601.767 727.335 596.573 720.854C591.403 714.373 589.854 706.606 591.736 697.29C598.217 671.271 604.579 645.228 611.06 619.209C617.422 593.072 623.902 567.029 630.383 541.01C629.788 533.481 631.67 526.881 636.03 521.115C640.391 515.349 647.229 512.513 656.521 512.633C682.206 513.705 707.272 517.827 731.885 525.237C742.845 529.24 749.088 536.078 750.494 545.609C751.9 555.139 749.541 563.622 743.536 570.936C737.532 578.227 728.812 580.467 717.399 577.775C704.794 573.891 692.19 571.056 679.466 569.292L679.49 569.269Z" fill="white"/>
<path d="M974.25 670.889C973.416 682.898 967.65 691.142 957.167 695.859C946.683 700.577 936.795 698.695 927.836 690.212C900.054 658.642 870.247 629.335 838.462 602.125C845.3 635.578 853.759 668.673 864.028 701.411C866.982 712.705 864.743 721.425 857.428 727.43C850.137 733.553 841.774 735.793 832.1 734.387C822.569 732.981 815.612 726.858 811.49 715.898C794.406 661.144 781.921 605.318 774.273 548.443C773.2 540.914 774.154 534.076 777.227 527.833C780.182 521.591 785.59 517.35 793.358 514.991C794.311 514.752 795.24 514.514 796.312 514.395C802.198 512.87 808.44 514.157 815.159 518.041C853.187 542.415 887.95 570.555 919.616 602.602C919.496 594.477 919.496 586.352 919.496 578.227C919.377 559.142 919.377 540.08 919.258 520.995C919.854 509.344 924.548 501.552 933.268 497.669C941.989 493.785 950.709 493.785 959.525 497.669C968.246 501.552 972.94 509.32 973.774 520.995C974.012 571.055 974.131 620.972 974.25 670.913V670.889Z" fill="white"/>
<path d="M1190 634.721C1188.36 652.734 1181.04 669.46 1168.34 684.876C1155.74 698.528 1141.13 709.012 1124.41 716.089C1107.8 723.165 1090.62 728.693 1072.82 732.696C1068.1 733.863 1063.86 733.983 1060.1 733.053C1049.5 732.219 1042.09 725.977 1037.84 713.968C1022.31 659.905 1008.39 605.39 996.147 550.398C994.384 540.629 996.266 532.742 1001.79 526.738C1007.32 520.734 1014.16 517.326 1022.17 516.611C1054.9 504.126 1088.24 500.957 1122.14 506.843C1159.12 516.611 1180.9 540.748 1187.14 579.157C1190.67 598.004 1191.62 616.612 1189.98 634.744L1190 634.721ZM1136.77 624.832C1137.73 614.706 1137.01 604.222 1134.65 593.619C1133.01 583.136 1129.93 574.892 1125.36 568.768C1120.64 562.645 1112.76 559.357 1101.7 558.999C1086.05 558.284 1070.49 559.595 1054.95 562.764C1063.55 599.981 1072.96 637.079 1083.21 673.939C1099.1 670.056 1112.78 662.86 1124.19 652.4C1131.72 644.156 1135.96 634.959 1136.8 624.832H1136.77Z" fill="white"/>
<path d="M1334.73 688.307C1338.73 697.146 1338.73 705.962 1334.84 714.564C1330.96 723.284 1323.07 727.764 1311.4 728.121L1241.32 726.358C1234.03 726 1227.55 723.308 1222 718.352C1216.47 713.301 1213.76 706.939 1214.11 699.148C1218.36 642.273 1224 585.494 1230.84 528.858C1231.79 521.21 1234.49 514.848 1239.08 509.559C1243.68 504.269 1250.04 501.553 1258.05 501.553C1264.89 501.553 1271.25 504.269 1277.14 509.559C1283.14 514.729 1285.86 521.21 1285.38 528.858C1279.49 576.678 1274.66 624.594 1270.65 672.652C1277.49 672.772 1284.19 673.01 1291.03 673.129C1297.87 673.367 1304.56 673.486 1311.4 673.725C1323.05 674.678 1330.82 679.491 1334.73 688.33V688.307Z" fill="white"/>
<path d="M1490.41 734.483C1488.88 741.44 1484.76 746.968 1478.04 751.09C1471.56 754.616 1464.75 755.569 1457.31 753.925C1450.02 752.281 1444.47 748.04 1440.83 741.321C1425.98 711.18 1413.26 680.205 1402.68 648.397C1396.67 646.395 1390.91 644.275 1385.24 641.916C1382.88 640.963 1380.52 640.153 1378.28 639.319C1361.32 632.838 1344.59 625.785 1328.22 617.994C1321.5 614.467 1317.38 608.916 1315.73 601.506C1314.09 594.095 1315.02 587.138 1318.45 580.776C1322.69 573.938 1328.22 569.816 1335.06 568.41C1341.9 566.885 1348.83 567.695 1355.79 571.007C1372.51 579.251 1389.81 586.542 1407.97 592.904C1408.68 590.545 1409.37 588.186 1409.97 585.947C1411.14 581.706 1412.33 577.822 1413.5 574.057L1427.74 533.194C1432.22 522.353 1439.28 516.23 1449.07 514.943C1458.72 513.537 1467.2 515.896 1474.4 521.781C1481.59 527.786 1483.48 536.387 1480.28 547.681C1475.11 562.525 1469.92 577.488 1464.75 592.428C1463.46 596.192 1462.03 600.076 1460.74 603.841C1459.79 606.676 1458.86 609.607 1457.91 612.799C1456.62 617.636 1454.95 622.568 1453.07 627.405C1462.6 657.093 1474.16 685.828 1487.81 713.849C1491.1 720.687 1491.93 727.62 1490.41 734.459V734.483Z" fill="white"/>
<path d="M2267.56 437.935C2075.28 452.469 1888.98 473.698 1690.34 487.875C1645.45 491.688 1595.29 476.057 1556.03 492.95C1542.57 504.935 1547.85 524.402 1546.76 543.487C1555.48 614.181 1557.84 684.517 1560.2 754.854C1559.46 767.577 1571.47 781.015 1590.55 782.111C1679.97 780.849 1769.75 773.224 1859.53 765.6C2005.9 749.731 2140.47 738.937 2279.91 728.716C2292.37 727.81 2301.99 717.398 2301.99 704.889C2301.9 616.587 2305.09 528.905 2286.32 445.392C2286.67 439.031 2273.95 438.292 2267.59 437.935H2267.56Z" fill="#EC8E2E"/>
<path d="M2274.74 0.000389213C2280.65 109.865 2286.84 217.467 2292.01 325.092C2294.11 368.886 2292.46 412.917 2295.51 456.616C2297.3 482.11 2288.58 489.401 2264.01 492.141C2106.21 509.797 1947.71 516.397 1789.31 524.927C1717.29 528.81 1645.23 532.694 1573.3 538.127C1552.52 539.699 1544.04 535.458 1542.54 512.894C1537.44 435.791 1529.22 358.926 1523.93 281.823C1518.62 204.577 1515.38 127.164 1510.88 43.6509C1549.98 75.6502 1572.06 114.059 1596.29 150.252C1605.75 164.381 1614.09 169.265 1630.53 164.452C1679.62 150.085 1720.12 163.809 1752.86 203.147C1780.78 236.719 1817.74 246.821 1860.27 242.675C1901.3 238.673 1942.45 234.574 1983.62 233.717C2017.19 233.026 2043.74 219.802 2053.08 189.423C2071.28 130.213 2115.26 121.231 2165.04 128.927C2198.47 134.097 2210.69 118.8 2221.27 93.4726C2235.02 60.6394 2250.27 28.5686 2274.76 -0.0234375L2274.74 0.000389213Z" fill="#EC8E2E"/>
<path d="M1542.9 352.469C1540.8 282.466 1596.89 220.016 1666.34 221.231C1748.74 222.661 1777.33 254.112 1782.69 336.028C1786.55 394.88 1734.04 450.444 1677.28 452.207C1597.41 454.709 1544.78 415.633 1542.9 352.469Z" fill="#1DA19E"/>
<path d="M2015.76 439.746C2006.21 474.438 1987.77 485.422 1951.53 474.176C1925.46 466.074 1904.16 458.617 1880.12 480.799C1861.2 498.241 1838.8 484.445 1818.67 475.963C1810.02 472.341 1806.92 465.789 1809.9 457.473C1814.14 445.655 1822.22 453.208 1828.89 454.781C1836.35 456.568 1844.14 457.664 1851.07 460.666C1872.83 470.054 1881.81 451.802 1890.94 440.175C1902.97 424.854 1881.52 422.376 1875.5 415.919C1864.37 404.006 1848.33 396.763 1834.78 386.994C1827.84 381.99 1817.26 378.321 1818.72 367.503C1820.22 356.424 1832.42 357.02 1839.87 353.398C1854.81 346.178 1959.79 341.985 1981.02 346.155C1981.21 372.269 1956.08 383.706 1947.52 404.054C1943.07 414.609 1921.34 421.662 1934.63 435.147C1945.62 446.275 1961.18 457.092 1979.5 453.184C1990.48 450.849 2000.82 445.417 2015.74 439.746H2015.76Z" fill="#1DA19E"/>
<path d="M1993.39 258.211C2004.83 258.521 2013.52 263.906 2012.43 275.986C2011.57 285.469 2008.57 296.549 1994.72 296.406C1981.38 296.263 1972.45 289.4 1972.28 276.391C1972.11 264.263 1982.64 260.403 1993.39 258.188V258.211Z" fill="white"/>
<path d="M1843.5 284.35C1842.47 296.883 1837.8 307.39 1824.1 308.319C1814.5 308.987 1806.11 303.316 1806.71 292.499C1807.38 280.395 1813.57 269.792 1826.39 267.862C1837.06 266.265 1841.38 275.105 1843.5 284.35Z" fill="white"/>
<path d="M1912.62 264.5C1922.77 266.644 1928.96 272.482 1929.03 282.537C1929.13 294.927 1921.29 300.335 1909.66 300.931C1899.63 301.455 1891.08 297.691 1891.05 286.945C1891.05 273.649 1901.51 268.122 1912.62 264.5Z" fill="white"/>
<path d="M2157.41 210.987C2219.39 195.619 2262.89 246.465 2268.8 305.603C2275.48 372.294 2230.59 427.477 2164.3 434.792C2100.23 441.868 2039.57 398.027 2034.68 341.129C2027.82 261.262 2066.47 220.304 2157.41 210.987Z" fill="#1DA19E"/>
<path d="M2184.31 386.781C2171.54 390.212 2158.77 393.667 2146 397.098C2117 388.544 2088.86 378.918 2080.95 344.417C2072.73 308.415 2088.94 272.46 2118.96 259.88C2156.37 244.202 2196.23 254.733 2215.1 285.255C2235.33 317.969 2229.13 349.849 2196.94 377.798C2193.06 381.181 2188.41 383.636 2184.31 386.804V386.781Z" fill="#1DA19E"/>
<path d="M2184.31 386.78C2197.37 360.023 2231.09 342.796 2215.57 302.981C2203.61 272.269 2182.84 261.737 2153.77 261.475C2126.37 261.237 2102.68 269.767 2092.13 298.24C2081.14 327.904 2086.6 353.518 2111.26 374.938C2121.89 384.183 2138.71 383.087 2146 397.097C2104.9 396.311 2079.05 377.964 2072.04 344.583C2063.35 303.22 2081.88 263.548 2117.19 247.966C2156.01 230.834 2197.18 242.795 2222.36 278.488C2240.88 304.745 2236.71 350.968 2215.19 375.319C2206.28 385.422 2196.3 387.471 2184.34 386.78H2184.31Z" fill="white"/>
<path d="M1752.98 328.19C1752.53 377.416 1712.26 425.736 1670.13 421.948C1618.45 417.278 1568.54 390.926 1568.66 350.658C1568.77 301.242 1608.59 257.83 1652.05 258.02C1726.08 258.354 1753.43 277.367 1752.98 328.214V328.19Z" fill="white"/>
<path d="M1694.03 396.214C1659.55 412.273 1623.69 406.388 1600.68 379.821C1579.45 355.327 1586.93 329.547 1600.63 305.172C1616.4 277.128 1668.75 260.14 1703.85 274.722C1731.32 286.135 1741.04 311.415 1736.97 341.127C1717.64 355.566 1706.18 376.152 1694.06 396.19L1694.03 396.214Z" fill="#1DA19E"/>
<path d="M1694.03 396.216C1697.11 369.125 1702.61 343.892 1736.94 341.152C1736.97 370.674 1718.95 386.137 1694.03 396.216Z" fill="#1DA19E"/>
<path d="M1614.16 678.204L1605.75 667.339C1605.09 666.362 1604.82 665.528 1604.87 664.623C1604.92 663.598 1605.52 662.598 1606.68 661.549L1615.57 653.424C1616.64 652.567 1617.69 652.114 1618.62 652.162C1619.55 652.209 1620.53 652.781 1621.69 653.972L1629.39 663.241C1630.15 664.409 1630.51 665.362 1630.44 666.291C1630.39 667.315 1629.79 668.316 1628.82 669.388L1620.1 677.942C1618.69 679.205 1617.62 679.848 1617 679.824C1615.88 679.753 1614.97 679.205 1614.12 678.228L1614.16 678.204Z" fill="white"/>
<path d="M1698.18 641.392C1697.13 650.685 1697.84 659.977 1700.18 669.246C1702.54 678.419 1708.76 684.638 1718.74 687.878C1726.22 690.047 1734.49 690.928 1743.23 690.618C1752.1 690.309 1759.44 687.33 1765.42 681.826C1772.9 674.869 1780.31 673.13 1787.72 676.322C1795.13 679.634 1800.16 685.257 1802.87 693.43C1805.59 701.603 1803.59 709.513 1796.99 717.233C1784.81 728.86 1769.42 735.699 1750.71 737.7C1731.99 739.821 1714.95 737.819 1699.58 731.6C1681.64 723.69 1668.66 711.753 1660.44 695.86C1652.31 679.992 1649 662.336 1650.4 643.108C1651.76 624.809 1656.53 607.916 1664.91 592.357C1673.42 576.703 1686.31 565.123 1703.78 557.594C1720.72 550.636 1738.87 547.491 1758.27 547.968C1777.66 548.349 1795.15 553.567 1811 563.527C1819.17 569.65 1822.55 576.822 1821.17 585.066C1819.76 593.31 1815.62 599.648 1808.57 604.08C1801.54 608.607 1793.53 608.249 1784.69 603.008C1776.66 598.123 1766.94 595.312 1755.46 594.859C1743.97 594.406 1733.92 595.979 1725.27 599.815C1708.14 608.178 1699.13 622.045 1698.13 641.416L1698.18 641.392Z" fill="white"/>
<path d="M2008.57 548.921C2015.55 572.224 2014.14 595.169 2004.33 617.709C1994.37 639.129 1979.5 656.451 1959.44 669.603C1939.47 682.732 1917.36 685.067 1893.08 676.704C1868.94 665.767 1853.31 648.136 1846.28 623.689C1839.16 599.243 1838.8 574.868 1845.14 550.375C1851.41 528.645 1863.75 512.49 1882.12 501.935C1900.49 491.38 1920.65 487.496 1942.69 490.188C1951.46 491.499 1957.98 495.692 1962.2 502.816C1986.12 510.155 2001.59 525.523 2008.57 548.921ZM1964.37 585.114C1965.99 576.679 1965.92 568.769 1964.3 561.382C1962.56 554.091 1957.89 549.707 1950.24 548.468C1941.57 547.158 1935.54 543.322 1932.2 536.96C1923.08 536.531 1914.67 538.318 1906.85 542.083C1899.16 545.752 1893.84 552.328 1891.05 561.621C1888.31 571.747 1887.43 583.803 1888.36 598.052C1889.29 612.181 1894.34 622.641 1903.52 629.336C1914.69 635.221 1925.27 635.198 1935.28 629.098C1945.38 622.998 1953.05 614.921 1958.25 604.723C1960.68 600.149 1962.68 593.572 1964.39 585.138L1964.37 585.114Z" fill="white"/>
<path d="M2249.58 672.939C2244.38 679.42 2237.61 682.827 2229.16 683.28C2220.7 683.828 2213.74 679.73 2208.38 671.105C2194.51 645.967 2182.43 619.901 2172.38 593.024C2164.85 609.655 2157.22 626.167 2149.69 642.798C2144.71 652.591 2137.73 657.738 2128.96 658.357C2120.1 658.881 2112.43 654.736 2106.04 645.944C2097.16 632.481 2088.05 619.115 2078.95 605.867C2078.05 628.836 2077.86 651.829 2078.5 674.988C2078.83 676.537 2078.93 678.3 2078.93 680.159C2078.93 682.113 2078.93 684.066 2078.93 685.925C2078.98 686.949 2078.93 687.879 2078.95 688.903C2078.57 695.551 2075.9 700.959 2070.83 705.296C2065.75 709.632 2060.08 711.562 2053.84 711.205C2046.98 710.824 2041.59 708.25 2037.76 703.414C2033.92 698.577 2031.89 692.811 2031.54 686.211C2029.56 636.58 2031.16 587.044 2036.23 537.723C2037.11 531.194 2039.57 526.214 2043.47 522.616C2047.48 519.138 2052.12 517.041 2057.39 516.422C2066.23 514.778 2073.47 517.232 2079.05 523.832C2093.99 544.823 2108.69 565.91 2123.2 587.187L2153.74 520.305C2159.49 509.75 2167.49 504.556 2177.86 504.723C2188.13 505.009 2195.37 511.061 2199.42 522.902C2211.26 567.244 2228.37 609.417 2250.62 649.541C2255.03 658.834 2254.67 666.625 2249.6 673.011L2249.58 672.939Z" fill="white"/>
</g>
<defs>
<clipPath id="clip0_1273_668">
<rect width="2302.11" height="792" fill="white"/>
</clipPath>
</defs>
</svg>
