<svg width="18" height="18" viewBox="0 0 18 18" fill="none" xmlns="http://www.w3.org/2000/svg">
<path d="M8.72409 8.72397C7.55771 8.72397 6.55922 8.30867 5.72862 7.47806C4.89801 6.64746 4.48271 5.64897 4.48271 4.48259C4.48271 3.31621 4.89801 2.31772 5.72862 1.48712C6.55922 0.656513 7.55771 0.241211 8.72409 0.241211C9.89047 0.241211 10.889 0.656513 11.7196 1.48712C12.5502 2.31772 12.9655 3.31621 12.9655 4.48259C12.9655 5.64897 12.5502 6.64746 11.7196 7.47806C10.889 8.30867 9.89047 8.72397 8.72409 8.72397ZM0.241333 17.2067V14.2378C0.241333 13.6369 0.395967 13.0846 0.705234 12.581C1.0145 12.0773 1.42538 11.6929 1.93788 11.4278C3.03357 10.88 4.14694 10.4691 5.27797 10.1952C6.40901 9.92128 7.55771 9.78431 8.72409 9.78431C9.89047 9.78431 11.0392 9.92128 12.1702 10.1952C13.3012 10.4691 14.4146 10.88 15.5103 11.4278C16.0228 11.6929 16.4337 12.0773 16.7429 12.581C17.0522 13.0846 17.2069 13.6369 17.2069 14.2378V17.2067H0.241333ZM2.36202 15.086H15.0862V14.2378C15.0862 14.0434 15.0376 13.8666 14.9404 13.7076C14.8432 13.5485 14.715 13.4248 14.556 13.3365C13.6017 12.8593 12.6385 12.5014 11.6665 12.2629C10.6946 12.0243 9.71375 11.905 8.72409 11.905C7.73444 11.905 6.75362 12.0243 5.78163 12.2629C4.80965 12.5014 3.84651 12.8593 2.89219 13.3365C2.73314 13.4248 2.60502 13.5485 2.50782 13.7076C2.41062 13.8666 2.36202 14.0434 2.36202 14.2378V15.086ZM8.72409 6.60328C9.30728 6.60328 9.80653 6.39563 10.2218 5.98033C10.6371 5.56503 10.8448 5.06578 10.8448 4.48259C10.8448 3.8994 10.6371 3.40015 10.2218 2.98485C9.80653 2.56955 9.30728 2.3619 8.72409 2.3619C8.1409 2.3619 7.64166 2.56955 7.22635 2.98485C6.81105 3.40015 6.6034 3.8994 6.6034 4.48259C6.6034 5.06578 6.81105 5.56503 7.22635 5.98033C7.64166 6.39563 8.1409 6.60328 8.72409 6.60328Z" fill="#3A3A3A"/>
</svg>
