<svg width="110" height="94" viewBox="0 0 110 94" fill="none" xmlns="http://www.w3.org/2000/svg">
<g clip-path="url(#clip0_921_4616)">
<path d="M102.511 10.1408L94.8832 4.42021C89.1181 0.10057 81.2461 0.136706 75.8979 3.6419L74.711 4.42021C68.3066 1.59604 61.4519 0.28125 55.0002 0.28125H54.9947C48.5486 0.28125 41.6938 1.59604 35.2894 4.42021L34.0997 3.6419C34.0997 3.6419 34.0719 3.62522 34.058 3.61688C28.2318 -0.0272955 20.6182 0.297928 15.1144 4.42021L7.48975 10.1408C1.2966 14.7829 -1.21902 22.8384 1.22989 30.1824L4.07351 38.7216C6.16106 44.9787 5.66349 49.7875 5.74133 51.3469C5.76912 54.1072 7.45084 56.4949 9.87473 57.4678C14.7058 78.3905 32.393 93.715 54.9974 93.715C77.6019 93.715 95.2751 78.4461 100.12 57.4678C102.544 56.4949 104.226 54.1072 104.254 51.3469C104.329 49.8042 103.823 45.0092 105.921 38.7188L108.765 30.1796C111.214 22.8357 108.698 14.7801 102.505 10.1353L102.511 10.1408ZM5.55509 28.7425C3.72605 23.2609 5.60234 17.2513 10.225 13.7878L17.8497 8.06994C19.9984 6.4605 22.589 5.64605 25.1853 5.64605C27.4229 5.64605 29.6633 6.25202 31.6258 7.47231L31.6925 7.51678C21.9441 19.475 16.243 33.9266 14.2861 51.6054C14.1721 52.6534 13.2298 53.504 12.0707 53.3733C11.0783 53.2594 10.3028 52.3421 10.3028 51.2858C10.3028 51.0106 10.2833 51.3775 10.2972 50.2656C10.325 47.978 10.3806 43.2191 8.40149 37.2873L5.55787 28.7481L5.55509 28.7425ZM55.0002 89.1591C35.6897 89.1591 19.3924 76.2696 14.5807 57.5262C16.8573 56.6784 18.539 54.6325 18.817 52.1002C20.7572 34.5687 26.5445 20.4284 36.4986 8.88161C40.215 7.16932 44.1483 6.00185 48.165 5.38476V16.2367C48.165 17.4959 49.1851 18.516 50.4443 18.516C51.7035 18.516 52.7237 17.4959 52.7237 16.2367V4.91777C54.2414 4.83994 55.7646 4.83994 57.2823 4.91777V16.2367C57.2823 17.4959 58.3025 18.516 59.5617 18.516C60.8209 18.516 61.841 17.4959 61.841 16.2367V5.38476C65.8549 6.00185 69.7882 7.16654 73.5074 8.88161C83.4615 20.4284 89.2488 34.5715 91.189 52.0975C91.4642 54.627 93.1348 56.6728 95.4253 57.5262C90.6136 76.2696 74.3163 89.1618 55.0058 89.1618L55.0002 89.1591ZM104.445 28.7425L101.602 37.2817C99.214 44.4422 99.7782 49.9654 99.7032 51.1412C99.7032 51.1885 99.6976 51.2357 99.6976 51.2802C99.6976 52.2976 98.9638 53.2482 97.8992 53.3706C96.8957 53.4984 95.8366 52.7479 95.7116 51.5971C93.7547 33.9211 88.0535 19.4694 78.3051 7.51122L78.3719 7.46675C82.6137 4.82882 88.148 5.06788 92.148 8.06438L99.7727 13.785C104.395 17.2485 106.272 23.2609 104.443 28.7397L104.445 28.7425Z" fill="#3A3A3A" fill-opacity="0.2"/>
<path d="M46.7723 28.5148C47.6618 27.6253 47.6618 26.1826 46.7723 25.2931C45.8828 24.4036 44.4401 24.4036 43.5506 25.2931C40.4346 28.4091 35.3894 28.4119 32.2706 25.2931C31.3811 24.4036 29.9385 24.4036 29.049 25.2931C28.1595 26.1826 28.1595 27.6253 29.049 28.5148C33.9468 33.4126 41.8745 33.4126 46.775 28.5148H46.7723Z" fill="#3A3A3A" fill-opacity="0.2"/>
<path d="M80.54 28.5148C81.4295 27.6253 81.4295 26.1826 80.54 25.2931C79.6505 24.4036 78.2078 24.4036 77.3183 25.2931C74.2023 28.4091 69.1571 28.4119 66.0383 25.2931C65.1488 24.4036 63.7062 24.4036 62.8167 25.2931C61.9272 26.1826 61.9272 27.6253 62.8167 28.5148C67.7145 33.4126 75.6449 33.4126 80.5427 28.5148H80.54Z" fill="#3A3A3A" fill-opacity="0.2"/>
<path d="M72.0923 36.7422C65.182 36.7422 59.5587 42.3655 59.5587 49.2758C59.5587 56.1861 65.2126 61.8094 72.0923 61.8094C78.9721 61.8094 84.626 56.2111 84.626 49.2758C84.626 42.3405 79.0027 36.7422 72.0923 36.7422ZM69.2432 54.4043C69.2432 52.8338 70.5218 51.5552 72.0923 51.5552C73.6629 51.5552 74.9415 52.8338 74.9415 54.4043C74.9415 55.9749 73.6629 57.2535 72.0923 57.2535C70.5218 57.2535 69.2432 55.9749 69.2432 54.4043ZM79.2973 52.6948C78.5245 49.4315 75.5892 46.9992 72.0923 46.9992C68.5955 46.9992 65.6601 49.4343 64.8874 52.6948C64.3926 51.658 64.1174 50.4989 64.1174 49.2758C64.1174 44.8783 67.6949 41.3009 72.0923 41.3009C76.4898 41.3009 80.0673 44.8783 80.0673 49.2758C80.0673 50.4989 79.7893 51.658 79.2973 52.6948Z" fill="#3A3A3A" fill-opacity="0.2"/>
<path d="M50.4413 49.2758C50.4413 42.3655 44.818 36.7422 37.9076 36.7422C30.9973 36.7422 25.374 42.3655 25.374 49.2758C25.374 56.1861 31.0279 61.8094 37.9076 61.8094C44.7874 61.8094 50.4413 56.2111 50.4413 49.2758ZM35.0612 54.4043C35.0612 52.8338 36.3399 51.5552 37.9104 51.5552C39.4809 51.5552 40.7596 52.8338 40.7596 54.4043C40.7596 55.9749 39.4809 57.2535 37.9104 57.2535C36.3399 57.2535 35.0612 55.9749 35.0612 54.4043ZM37.9076 41.3009C42.3051 41.3009 45.8826 44.8783 45.8826 49.2758C45.8826 50.4989 45.6046 51.658 45.1126 52.6948C44.3398 49.4315 41.4045 46.9992 37.9076 46.9992C34.4108 46.9992 31.4754 49.4343 30.7027 52.6948C30.2079 51.658 29.9327 50.4989 29.9327 49.2758C29.9327 44.8783 33.5102 41.3009 37.9076 41.3009Z" fill="#3A3A3A" fill-opacity="0.2"/>
<path d="M54.9808 66.4268C50.3415 66.4268 45.9801 68.2336 42.7001 71.5136C41.8106 72.4031 41.8106 73.8458 42.7001 74.7353C43.5896 75.6248 45.0322 75.6248 45.9217 74.7353C48.3401 72.3141 51.559 70.9827 54.9808 70.9827C58.4026 70.9827 61.6187 72.3141 64.0398 74.7353C64.4845 75.18 65.0683 75.4024 65.652 75.4024C66.2357 75.4024 66.8195 75.18 67.2642 74.7353C68.1537 73.8458 68.1537 72.4031 67.2642 71.5136C63.9842 68.2336 59.6228 66.4268 54.9835 66.4268H54.9808Z" fill="#3A3A3A" fill-opacity="0.2"/>
</g>
<defs>
<clipPath id="clip0_921_4616">
<rect width="109.392" height="93.4365" fill="white" transform="translate(0.304077 0.28125)"/>
</clipPath>
</defs>
</svg>
