<svg width="20" height="20" viewBox="0 0 20 20" fill="none" xmlns="http://www.w3.org/2000/svg">
<path d="M18.1539 19.1638C15.9448 19.1638 13.7623 18.6823 11.6062 17.7191C9.45021 16.756 7.48857 15.3908 5.72133 13.6235C3.95409 11.8563 2.5889 9.89466 1.62575 7.73863C0.662604 5.58259 0.18103 3.40005 0.18103 1.191C0.18103 0.872895 0.287065 0.607809 0.499134 0.39574C0.711203 0.183671 0.976289 0.0776367 1.29439 0.0776367H5.58879C5.8362 0.0776367 6.05711 0.161581 6.2515 0.329469C6.4459 0.497357 6.56077 0.696171 6.59612 0.925913L7.28534 4.63712C7.32069 4.91988 7.31185 5.15846 7.25883 5.35285C7.20581 5.54725 7.10862 5.71514 6.96724 5.85652L4.3959 8.45436C4.74935 9.10824 5.16907 9.74003 5.65506 10.3497C6.14105 10.9594 6.67564 11.547 7.25883 12.1125C7.80668 12.6604 8.38103 13.1685 8.98189 13.6368C9.58275 14.1051 10.219 14.5337 10.8905 14.9225L13.3823 12.4307C13.5414 12.2716 13.749 12.1523 14.0053 12.0728C14.2615 11.9933 14.5134 11.9712 14.7608 12.0065L18.419 12.7488C18.6664 12.8194 18.8696 12.9476 19.0287 13.1331C19.1877 13.3187 19.2672 13.5263 19.2672 13.7561V18.0505C19.2672 18.3686 19.1612 18.6337 18.9491 18.8457C18.7371 19.0578 18.472 19.1638 18.1539 19.1638ZM3.38857 6.43971L5.13814 4.69014L4.6875 2.19833H2.32823C2.41659 2.9229 2.5403 3.63863 2.69935 4.34552C2.8584 5.05242 3.08814 5.75048 3.38857 6.43971ZM12.8787 15.9298C13.5679 16.2302 14.2704 16.4688 14.9861 16.6455C15.7018 16.8222 16.422 16.9371 17.1465 16.9901V14.6574L14.6547 14.1537L12.8787 15.9298Z" fill="#3A3A3A"/>
</svg>
