<svg width="18" height="22" viewBox="0 0 18 22" fill="none" xmlns="http://www.w3.org/2000/svg">
<path d="M8.72409 11.1723C9.30728 11.1723 9.80653 10.9646 10.2218 10.5493C10.6371 10.134 10.8448 9.6348 10.8448 9.05161C10.8448 8.46842 10.6371 7.96917 10.2218 7.55387C9.80653 7.13857 9.30728 6.93092 8.72409 6.93092C8.1409 6.93092 7.64166 7.13857 7.22635 7.55387C6.81105 7.96917 6.6034 8.46842 6.6034 9.05161C6.6034 9.6348 6.81105 10.134 7.22635 10.5493C7.64166 10.9646 8.1409 11.1723 8.72409 11.1723ZM8.72409 18.9658C10.8801 16.9865 12.4795 15.1884 13.5222 13.5713C14.5648 11.9543 15.0862 10.5184 15.0862 9.26367C15.0862 7.33738 14.472 5.76012 13.2438 4.53189C12.0156 3.30365 10.509 2.68954 8.72409 2.68954C6.93918 2.68954 5.4326 3.30365 4.20437 4.53189C2.97614 5.76012 2.36202 7.33738 2.36202 9.26367C2.36202 10.5184 2.88336 11.9543 3.92603 13.5713C4.9687 15.1884 6.56806 16.9865 8.72409 18.9658ZM8.72409 21.7757C5.87883 19.3546 3.75373 17.1058 2.34877 15.0293C0.943811 12.9528 0.241333 11.0309 0.241333 9.26367C0.241333 6.61281 1.09403 4.50096 2.79941 2.92811C4.5048 1.35527 6.4797 0.568848 8.72409 0.568848C10.9685 0.568848 12.9434 1.35527 14.6488 2.92811C16.3542 4.50096 17.2069 6.61281 17.2069 9.26367C17.2069 11.0309 16.5044 12.9528 15.0994 15.0293C13.6945 17.1058 11.5694 19.3546 8.72409 21.7757Z" fill="#3A3A3A"/>
</svg>
