<svg width="110" height="95" viewBox="0 0 110 95" fill="none" xmlns="http://www.w3.org/2000/svg">
<g clip-path="url(#clip0_921_6016)">
<path d="M102.511 10.6418L94.8833 4.92119C89.1183 0.601547 81.2462 0.637683 75.8981 4.14287L74.7111 4.92119C68.3067 2.09702 61.452 0.782227 55.0003 0.782227H54.9948C48.5487 0.782227 41.694 2.09702 35.2896 4.92119L34.0998 4.14287C34.0998 4.14287 34.0721 4.12619 34.0582 4.11785C28.2319 0.473681 20.6183 0.798905 15.1146 4.92119L7.48987 10.6418C1.29672 15.2839 -1.2189 23.3394 1.23001 30.6834L4.07363 39.2226C6.16118 45.4796 5.66362 50.2885 5.74145 51.8479C5.76924 54.6081 7.45096 56.9959 9.87485 57.9688C14.7059 78.8915 32.3931 94.216 54.9976 94.216C77.602 94.216 95.2753 78.9471 100.12 57.9688C102.544 56.9959 104.226 54.6081 104.254 51.8479C104.329 50.3052 103.823 45.5102 105.921 39.2198L108.765 30.6806C111.214 23.3366 108.698 15.2811 102.505 10.6362L102.511 10.6418ZM5.55521 29.2435C3.72617 23.7619 5.60246 17.7522 10.2251 14.2887L17.8498 8.57092C19.9985 6.96148 22.5892 6.14703 25.1854 6.14703C27.423 6.14703 29.6635 6.753 31.6259 7.97328L31.6926 8.01776C21.9443 19.976 16.2431 34.4276 14.2862 52.1064C14.1722 53.1544 13.2299 54.005 12.0708 53.8743C11.0785 53.7603 10.3029 52.843 10.3029 51.7868C10.3029 51.5116 10.2835 51.8785 10.2974 50.7666C10.3252 48.4789 10.3808 43.7201 8.40161 37.7882L5.55799 29.249L5.55521 29.2435ZM55.0003 89.66C35.6898 89.66 19.3925 76.7706 14.5809 58.0272C16.8574 57.1794 18.5391 55.1335 18.8171 52.6012C20.7573 35.0697 26.5447 20.9294 36.4987 9.38259C40.2152 7.6703 44.1484 6.50283 48.1651 5.88574V16.7376C48.1651 17.9968 49.1852 19.017 50.4444 19.017C51.7036 19.017 52.7238 17.9968 52.7238 16.7376V5.41875C54.2415 5.34092 55.7648 5.34092 57.2825 5.41875V16.7376C57.2825 17.9968 58.3026 19.017 59.5618 19.017C60.821 19.017 61.8412 17.9968 61.8412 16.7376V5.88574C65.855 6.50283 69.7883 7.66752 73.5075 9.38259C83.4616 20.9294 89.2489 35.0725 91.1891 52.5984C91.4643 55.1279 93.1349 57.1738 95.4254 58.0272C90.6137 76.7706 74.3164 89.6628 55.0059 89.6628L55.0003 89.66ZM104.445 29.2435L101.602 37.7827C99.2141 44.9432 99.7784 50.4664 99.7033 51.6422C99.7033 51.6895 99.6978 51.7367 99.6978 51.7812C99.6978 52.7986 98.9639 53.7492 97.8993 53.8715C96.8958 53.9994 95.8368 53.2489 95.7117 52.0981C93.7548 34.422 88.0536 19.9704 78.3053 8.0122L78.372 7.96773C82.6138 5.3298 88.1481 5.56885 92.1481 8.56536L99.7728 14.286C104.395 17.7495 106.272 23.7619 104.443 29.2407L104.445 29.2435Z" fill="#3A3A3A" fill-opacity="0.2"/>
<path d="M46.7723 29.0157C47.6618 28.1262 47.6618 26.6836 46.7723 25.7941C45.8828 24.9046 44.4401 24.9046 43.5506 25.7941C40.4346 28.9101 35.3894 28.9129 32.2706 25.7941C31.3811 24.9046 29.9385 24.9046 29.049 25.7941C28.1595 26.6836 28.1595 28.1262 29.049 29.0157C33.9468 33.9136 41.8745 33.9136 46.775 29.0157H46.7723Z" fill="#3A3A3A" fill-opacity="0.2"/>
<path d="M80.5398 29.0157C81.4293 28.1262 81.4293 26.6836 80.5398 25.7941C79.6503 24.9046 78.2077 24.9046 77.3182 25.7941C74.2022 28.9101 69.157 28.9129 66.0382 25.7941C65.1487 24.9046 63.706 24.9046 62.8165 25.7941C61.927 26.6836 61.927 28.1262 62.8165 29.0157C67.7144 33.9136 75.6448 33.9136 80.5426 29.0157H80.5398Z" fill="#3A3A3A" fill-opacity="0.2"/>
<path d="M72.0922 37.2432C65.1819 37.2432 59.5586 42.8665 59.5586 49.7768C59.5586 56.6871 65.2125 62.3104 72.0922 62.3104C78.972 62.3104 84.6258 56.7121 84.6258 49.7768C84.6258 42.8415 79.0025 37.2432 72.0922 37.2432ZM69.243 54.9053C69.243 53.3348 70.5217 52.0561 72.0922 52.0561C73.6627 52.0561 74.9414 53.3348 74.9414 54.9053C74.9414 56.4758 73.6627 57.7545 72.0922 57.7545C70.5217 57.7545 69.243 56.4758 69.243 54.9053ZM79.2972 53.1958C78.5244 49.9325 75.5891 47.5002 72.0922 47.5002C68.5954 47.5002 65.66 49.9352 64.8873 53.1958C64.3925 52.159 64.1173 50.9999 64.1173 49.7768C64.1173 45.3793 67.6947 41.8019 72.0922 41.8019C76.4897 41.8019 80.0672 45.3793 80.0672 49.7768C80.0672 50.9999 79.7892 52.159 79.2972 53.1958Z" fill="#3A3A3A" fill-opacity="0.2"/>
<path d="M50.4413 49.7768C50.4413 42.8665 44.818 37.2432 37.9076 37.2432C30.9973 37.2432 25.374 42.8665 25.374 49.7768C25.374 56.6871 31.0279 62.3104 37.9076 62.3104C44.7874 62.3104 50.4413 56.7121 50.4413 49.7768ZM35.0612 54.9053C35.0612 53.3348 36.3399 52.0561 37.9104 52.0561C39.4809 52.0561 40.7596 53.3348 40.7596 54.9053C40.7596 56.4758 39.4809 57.7545 37.9104 57.7545C36.3399 57.7545 35.0612 56.4758 35.0612 54.9053ZM37.9076 41.8019C42.3051 41.8019 45.8826 45.3793 45.8826 49.7768C45.8826 50.9999 45.6046 52.159 45.1126 53.1958C44.3398 49.9325 41.4045 47.5002 37.9076 47.5002C34.4108 47.5002 31.4754 49.9352 30.7027 53.1958C30.2079 52.159 29.9327 50.9999 29.9327 49.7768C29.9327 45.3793 33.5102 41.8019 37.9076 41.8019Z" fill="#3A3A3A" fill-opacity="0.2"/>
<path d="M54.98 66.9277C50.3407 66.9277 45.9794 68.7345 42.6994 72.0146C41.8099 72.9041 41.8099 74.3467 42.6994 75.2362C43.5889 76.1257 45.0315 76.1257 45.921 75.2362C48.3393 72.8151 51.5582 71.4836 54.98 71.4836C58.4018 71.4836 61.6179 72.8151 64.039 75.2362C64.4838 75.681 65.0675 75.9034 65.6513 75.9034C66.235 75.9034 66.8187 75.681 67.2635 75.2362C68.153 74.3467 68.153 72.9041 67.2635 72.0146C63.9834 68.7345 59.6221 66.9277 54.9828 66.9277H54.98Z" fill="#3A3A3A" fill-opacity="0.2"/>
</g>
<defs>
<clipPath id="clip0_921_6016">
<rect width="109.392" height="93.4365" fill="white" transform="translate(0.303711 0.782227)"/>
</clipPath>
</defs>
</svg>
